<?xml version="1.0" standalone="no"?><!DOCTYPE svg PUBLIC "-//W3C//DTD SVG 1.1//EN" "http://www.w3.org/Graphics/SVG/1.1/DTD/svg11.dtd"><svg t="1494152563085" class="icon" style="" viewBox="0 0 1024 1024" version="1.1" xmlns="http://www.w3.org/2000/svg" p-id="610" xmlns:xlink="http://www.w3.org/1999/xlink" width="200" height="200"><defs><style type="text/css"></style></defs><path d="M341.533202 449.104136l341.665596 0c47.057651 0 85.348669-38.284884 85.348669-85.344579L768.547467 86.374083C768.543378 39.318477 730.257472 1.022348 683.199821 1.022348L341.533202 1.022348c-47.054584 0-85.343557 38.296129-85.343557 85.351736l0 277.386495C256.190668 410.819252 294.478619 449.104136 341.533202 449.104136L341.533202 449.104136 341.533202 449.104136 341.533202 449.104136zM321.109759 93.37001c0-15.126659 12.307024-27.431638 27.421415-27.431638l327.672721 0c15.113369 0 27.416303 12.304979 27.416303 27.431638l0 264.398588c0 15.114391-12.302934 27.417326-27.416303 27.417326L348.526062 385.185924c-15.115413 0-27.417326-12.302934-27.417326-27.417326L321.109759 93.37001 321.109759 93.37001 321.109759 93.37001zM935.98147 329.259405l-73.621316 0c-49.111548 0-93.821888 42.101308-93.821888 88.340058l0 100.693088c-8.650085-2.960719-17.772496-4.926694-27.412214-4.926694l-456.519225 0c-9.643808 0-18.770307 1.966997-27.420393 4.931806l0-100.6982c0-48.717944-37.028418-88.340058-82.524944-88.340058L99.299117 329.259405C50.735547 329.259405 0.500439 371.360713 0.500439 417.599463l0 443.172473c0 44.686826 48.819156 99.291449 98.798677 99.291449l93.009121 0 0 63.936614 63.887542 0 0-63.936614 511.537899 0 0 63.936614 63.921279 0 0-63.971374 104.32549 0.033737c48.028881 0 87.495599-52.326832 87.495599-99.291449L1023.476047 417.598441C1023.477069 368.062619 981.679398 329.259405 935.98147 329.259405L935.98147 329.259405 935.98147 329.259405 935.98147 329.259405zM257.191546 604.723886c0-15.133816 12.297823-27.43675 27.412214-27.43675l456.522292 0c15.079631 0 27.359052 12.253862 27.408124 27.338605l0 72.494689c-0.049073 15.088832-12.328493 27.31918-27.408124 27.31918L284.60785 704.43961c-15.112346 0-27.415281-12.288622-27.415281-27.412214L257.192569 604.723886 257.191546 604.723886 257.191546 604.723886zM959.554768 855.775722c0 19.966454-13.835434 41.369307-23.57432 41.369307L99.294005 897.14503c-13.688216 0-34.870242-25.1334-34.875353-41.369307L64.418651 417.598441c0-14.21268 18.577083-30.416894 34.875353-30.416894l69.367326 0c15.201291 0 24.599735 15.790163 24.599735 30.416894l0 355.759684 639.197457 0L832.458523 688.111692c0-0.043961 0.015335-0.064408 0.015335-0.099168l0-138.241881c0-0.023514-0.015335-0.064408-0.015335-0.093034L832.458523 417.598441c0-13.928468 19.45937-30.411783 35.900768-30.411783l67.624223 0c14.754525 0 23.57432 15.459945 23.57432 30.411783L959.554768 855.775722 959.554768 855.775722 959.554768 855.775722z" p-id="611"></path></svg>