<?xml version="1.0" standalone="no"?><!DOCTYPE svg PUBLIC "-//W3C//DTD SVG 1.1//EN" "http://www.w3.org/Graphics/SVG/1.1/DTD/svg11.dtd"><svg t="1494152756991" class="icon" style="" viewBox="0 0 1024 1024" version="1.1" xmlns="http://www.w3.org/2000/svg" p-id="1011" xmlns:xlink="http://www.w3.org/1999/xlink" width="200" height="200"><defs><style type="text/css"></style></defs><path d="M289 262.244c0-8.488 0-16.464 0-24.976-5.432 0-10.748-0.288-16.004 0.088-4.416 0.316-7.916-1.14-11-3.956-10.74-9.788-20.956-20.228-32.284-29.272-10.248-8.184-13.948-17.736-13.24-30.648 0.944-17.22 0.376-34.528 0.168-51.796-0.084-6.784 2.328-12.228 7.052-16.836 11.912-11.62 23.852-23.204 35.744-34.84 4.12-4.04 8.832-6.008 14.76-6.004 157.564 0.084 315.128 0.08 472.696 0 5.416 0 9.732 1.656 13.388 5.524 11.1 11.724 22.148 23.5 33.424 35.064 3.716 3.808 4.872 8.284 4.888 13.2 0.084 22.756 0.092 45.516 0 68.272-0.028 6.308-1.916 11.68-7.04 16.212-10.4 9.196-20.316 18.936-30.304 28.584-4.644 4.488-9.704 7.08-16.46 6.516-5.936-0.496-11.948-0.1-18.332-0.1 0 8.256 0 16.348 0 24.976 3.964 0 7.812 0 11.652 0 14.568 0 29.12 0.12 43.684-0.064 5.388-0.072 9.492 1.612 13.252 5.588 19.716 20.912 39.628 41.632 59.492 62.404 3.756 3.928 5.476 8.464 5.468 13.972-0.064 178.192-0.064 356.38 0 534.564 0 6.584-2.308 11.76-7.032 16.276-19.488 18.652-38.988 37.284-58.188 56.228-5.964 5.892-12.1 8.804-20.872 8.788-176.812-0.252-353.628-0.208-530.444-0.092-5.096 0.004-8.984-1.392-12.528-4.916-20.832-20.744-41.84-41.324-62.52-62.228-2.256-2.28-3.096-6.184-4.012-9.496-0.616-2.26-0.276-4.808-0.276-7.232C164.12 699.62 164.16 523.208 164 346.792c-0.004-8.14 2.34-14.308 7.984-20.252 18.108-19.08 35.828-38.532 53.424-58.084 4.068-4.524 8.584-6.304 14.424-6.252 14.56 0.128 29.116 0.044 43.68 0.044C285.252 262.244 286.992 262.244 289 262.244zM512.08 905.672c86.052 0 172.104 0.016 258.156-0.088 2.344-0.004 5.268-0.664 6.936-2.132 11.38-10.048 22.416-20.476 33.752-30.572 2.676-2.388 3.572-4.824 3.568-8.328-0.088-93.76-0.072-187.528-0.072-281.288 0-76.496 0.024-152.992-0.108-229.484-0.008-2.388-0.996-5.548-2.68-7.024-13.356-11.716-26.92-23.2-40.628-34.5-2.02-1.664-5.128-2.84-7.732-2.844-168.548-0.128-337.088-0.128-505.636 0.004-2.592 0-5.732 1.192-7.688 2.892-12.924 11.224-25.668 22.656-38.256 34.248-1.616 1.488-2.888 4.272-2.892 6.46-0.132 171.068-0.132 342.128 0.012 513.192 0 2.328 1.392 5.276 3.12 6.868 10.7 9.828 21.764 19.256 32.512 29.036 2.832 2.576 5.64 3.644 9.48 3.64C339.976 905.648 426.028 905.672 512.08 905.672zM509.628 190.872c67.44 0 134.888-0.244 202.328 0.256 10.26 0.076 16.46-2.752 22.468-11.208 6.316-8.88 10.16-17.344 8.968-28.292-0.756-7.02 1.66-14.932-0.8-21.068-2.528-6.304-9.384-10.824-14.084-16.34-2.408-2.812-4.984-3.848-8.724-3.844-137.632 0.092-275.268 0.18-412.904-0.136-9.24-0.02-15.728 2.792-22.772 8.464-9.008 7.256-13.74 15.088-11.648 26.624 0.34 1.88 0.288 3.904 0.008 5.796-1.728 11.684 1.416 21.404 10.892 28.944 2.488 1.984 4.524 4.624 6.436 7.208 2.144 2.896 4.736 3.672 8.284 3.668C368.6 190.844 439.116 190.872 509.628 190.872zM343.72 261.896c112.496 0 224.488 0 336.48 0 0-8.336 0-16.32 0-24.312-112.316 0-224.312 0-336.48 0C343.72 245.764 343.72 253.628 343.72 261.896z" p-id="1012"></path><path d="M628.124 421.668c13.584-13.672 27.996-22.496 45.192-26.372 35.208-7.924 70.612 7.392 89.848 38.768 10.188 16.624 14.516 34.868 15.656 54.152 2.128 36.056-13.964 63.108-41.92 83.9-13.704 10.184-28.652 18.696-42.628 28.54-16.464 11.6-30.924 25.324-42.452 42.052-11 15.96-34.58 16.748-45.468 0.78-15.248-22.364-35.612-38.384-58.588-51.816-15.916-9.296-31.232-19.448-43.996-33.028-17.416-18.528-26.084-40.284-25.536-65.764 0.508-23.56 5.78-45.648 19.728-65.064 30.736-42.808 89.084-47.78 126.86-10.884C626.064 418.152 626.86 419.828 628.124 421.668zM629.32 593.644c16.548-18.004 35.44-32.692 56.084-45.36 10.284-6.308 20.112-13.44 29.656-20.844 7.244-5.628 12.7-13.1 14.544-22.276 3.26-16.204 1.124-31.872-7.54-46.08-9.888-16.216-29.536-21.528-46.556-13.112-10.892 5.388-17.416 14.716-23.564 24.848-4.864 8.004-11.224 15.228-17.644 22.12-4.044 4.336-7.3 4.344-11.376 0.084-6.292-6.576-11.88-13.86-17.432-21.092-4.976-6.48-8.656-14.164-14.404-19.8-17.236-16.92-42.032-14.188-54.972 5.628-8.532 13.064-10.864 27.732-9.492 43.032 0.888 9.896 5.264 18.464 12.688 24.804 8.672 7.416 17.968 14.148 27.356 20.664 12.716 8.824 26.112 16.684 38.552 25.86C613.728 578.4 621.096 586.208 629.32 593.644z" p-id="1013"></path></svg>