<?xml version="1.0" standalone="no"?><!DOCTYPE svg PUBLIC "-//W3C//DTD SVG 1.1//EN" "http://www.w3.org/Graphics/SVG/1.1/DTD/svg11.dtd"><svg t="1494152807949" class="icon" style="" viewBox="0 0 1024 1024" version="1.1" xmlns="http://www.w3.org/2000/svg" p-id="1014" xmlns:xlink="http://www.w3.org/1999/xlink" width="200" height="200"><defs><style type="text/css"></style></defs><path d="M881.967146 371.615693l-3.000334-0.750083-62.407352 0-1.694595 0L202.986087 370.865609 147.360186 370.865609c-58.546418 0-81.428567 42.346457-82.521458 70.807672l-0.019443 74.5366c0 27.959795 12.166087 67.565838 70.12615 97.463776 15.597233 8.046257 31.129998 13.570063 42.917462 17.105586l0 115.105574c0 76.800153 99.522668 108.786659 103.758132 110.11184l3.660366 1.14201 423.716304 0c123.155924 0 129.125893-109.10286 129.173988-110.205984l0.021489-124.638695c15.754822-5.359055 39.47813-14.613836 61.520145-29.501918 38.403658-25.940812 58.702983-60.489676 58.702983-99.909477C958.415282 391.889435 885.08823 372.396475 881.967146 371.615693zM871.588775 551.156812c-22.358217 15.105023-48.682769 23.393803-59.923788 26.933419-4.66423 1.468444-7.233752 2.27788-9.826809 3.574409l-13.887288 6.943133 0 156.411329c-0.23843 2.628874-1.985214 17.751293-11.465123 32.064276-13.103436 19.783579-35.808554 29.814026-67.487044 29.814026L293.419749 806.897404c-13.614066-5.096065-65.313541-26.726711-65.313541-61.011562L228.106208 611.310843l-0.047072-20.718881-20.329001-3.949962c-0.925069-0.179079-92.667539-19.436678-92.667539-70.432119l0-72.615854c0.837064-8.624425 6.245238-22.48613 32.298614-22.48613l55.625902 0 611.879801 0 1.694595 0 55.236022 0c8.996908 3.616364 36.376489 18.96391 36.376489 71.774697C908.172995 515.465938 896.206452 534.528086 871.588775 551.156812z" p-id="1015"></path><path d="M199.092407 445.023586c-12.150738-0.967024-34.755572-2.769067-51.27071 11.866259-10.308787 9.136078-15.891945 22.51069-16.593933 39.746236-0.649799 15.900132 4.393054 30.006408 14.583137 40.790008 20.34742 21.535479 54.017264 22.681582 57.788148 22.741957l18.229177 0.290619L221.828224 445.331601l-17.943674 0C202.953342 445.331601 200.99064 445.174012 199.092407 445.023586zM185.939853 520.887414c-5.265934-1.755993-10.490935-4.349051-14.044878-8.109702-2.226714-2.354628-5.146207-6.441713-4.811586-14.677281 0.199545-4.889357 1.149173-11.344373 4.542456-14.351869 3.062755-2.715855 8.710382-3.441379 14.31503-3.462868L185.940876 520.887414z" p-id="1016"></path><path d="M867.596857 456.889845c-16.519232-14.638395-39.126112-12.827143-51.27071-11.866259-1.898233 0.150426-3.859911 0.308015-4.79112 0.308015l-17.943674 0 0 115.127064 18.229177-0.290619c3.770883-0.059352 37.439704-1.205455 57.788148-22.741957 10.190083-10.783601 15.232936-24.889877 14.583137-40.790008C883.488803 479.400534 877.905644 466.026946 867.596857 456.889845zM843.582931 512.718361c-3.529383 3.767813-8.778944 6.382361-14.104229 8.16189l0-40.594557c5.603625 0.021489 11.253298 0.74599 14.31503 3.462868 3.39226 3.007497 4.341888 9.462512 4.542456 14.351869C848.667739 506.298138 845.782016 510.366803 843.582931 512.718361z" p-id="1017"></path><path d="M169.546487 370.265952l50.242288 0 0-24.862247 0.00307-0.105401-0.007163-0.322341c-0.002047-0.206708-0.014326-20.954241 12.497639-33.56035 7.260357-7.314593 17.847483-10.871605 32.365128-10.871605l127.400598 0 22.395056-0.13303 2.574638-22.233374c0.947582-8.176217 11.416004-79.912028 86.282109-79.912028 31.314193 0 52.66957 11.649318 65.287959 35.614126 10.4367 19.818371 10.970866 40.794102 10.974959 40.86778l0.218988 24.90011 164.875095 0c9.30697 0.774643 36.770462 6.434549 36.770462 45.756113L781.427312 370.265952l50.242288 0 0-24.862247c0-36.630269-15.149025-65.935712-42.654472-82.523505-20.146852-12.146645-40.152489-13.352099-42.367947-13.450337l-119.537514-0.024559c-8.862855-44.343951-41.393759-101.382015-123.809817-101.382015-82.216513 0-119.481232 58.187237-131.823328 102.279455L264.648472 250.302743c-35.506678 0-56.875359 14.278191-68.549236 26.252921-26.109658 26.786063-26.641777 63.265906-26.552749 69.083401L169.546487 370.265952z" p-id="1018"></path><path d="M503.299851 212.620515c-43.161009 0-62.215994 37.271882-64.493873 62.322417l50.03558 4.548596c0.252757-2.775206 2.13564-16.629749 14.458293-16.629749 2.631944 0 10.638291 0 11.216459 14.638395l50.239218-0.567935c-0.027629-2.555196-0.50449-15.998369-7.058766-30.062689C547.555797 225.103828 527.728216 212.620515 503.299851 212.620515z" p-id="1019"></path></svg>