<?xml version="1.0" standalone="no"?><!DOCTYPE svg PUBLIC "-//W3C//DTD SVG 1.1//EN" "http://www.w3.org/Graphics/SVG/1.1/DTD/svg11.dtd"><svg t="1493696809644" class="icon" style="" viewBox="0 0 1025 1024" version="1.1" xmlns="http://www.w3.org/2000/svg" p-id="4608" xmlns:xlink="http://www.w3.org/1999/xlink" width="200.1953125" height="200"><defs><style type="text/css"></style></defs><path d="M1.023306 127.524418l158.037363 0 0 128.989793-158.037363 0 0-128.989793Z" p-id="4609" fill="#d81e06"></path><path d="M257.307274 127.524418l767.673054 0 0 128.989793-767.673054 0 0-128.989793Z" p-id="4610" fill="#d81e06"></path><path d="M1.023306 447.697485l158.037363 0 0 128.599913-158.037363 0 0-128.599913Z" p-id="4611" fill="#d81e06"></path><path d="M257.307274 447.697485l639.775128 0 0 128.599913-639.775128 0 0-128.599913Z" p-id="4612" fill="#d81e06"></path><path d="M1.023306 767.116375l158.037363 0 0 128.96421-158.037363 0 0-128.96421Z" p-id="4613" fill="#d81e06"></path><path d="M257.307274 767.116375l703.220113 0 0 128.96421-703.220113 0 0-128.96421Z" p-id="4614" fill="#d81e06"></path></svg>