<?xml version="1.0" standalone="no"?><!DOCTYPE svg PUBLIC "-//W3C//DTD SVG 1.1//EN" "http://www.w3.org/Graphics/SVG/1.1/DTD/svg11.dtd"><svg t="1494144610119" class="icon" style="" viewBox="0 0 1024 1024" version="1.1" xmlns="http://www.w3.org/2000/svg" p-id="2367" xmlns:xlink="http://www.w3.org/1999/xlink" width="200" height="200"><defs><style type="text/css"></style></defs><path d="M62.983985 153.61054l102.410438 0 0 102.411461-102.410438 0 0-102.411461Z" p-id="2368" fill="#ffffff"></path><path d="M239.002884 153.61054l719.965495 0 0 102.411461-719.965495 0 0-102.411461Z" p-id="2369" fill="#ffffff"></path><path d="M62.983985 460.793758l102.410438 0 0 102.411461-102.410438 0 0-102.411461Z" p-id="2370" fill="#ffffff"></path><path d="M239.002884 460.793758l719.965495 0 0 102.411461-719.965495 0 0-102.411461Z" p-id="2371" fill="#ffffff"></path><path d="M62.983985 767.979022l102.410438 0 0 102.410438-102.410438 0 0-102.410438Z" p-id="2372" fill="#ffffff"></path><path d="M239.002884 767.979022l719.965495 0 0 102.410438-719.965495 0 0-102.410438Z" p-id="2373" fill="#ffffff"></path></svg>