<?xml version="1.0" standalone="no"?><!DOCTYPE svg PUBLIC "-//W3C//DTD SVG 1.1//EN" "http://www.w3.org/Graphics/SVG/1.1/DTD/svg11.dtd"><svg t="1493696704769" class="icon" style="" viewBox="0 0 1024 1024" version="1.1" xmlns="http://www.w3.org/2000/svg" p-id="2659" xmlns:xlink="http://www.w3.org/1999/xlink" width="200" height="200"><defs><style type="text/css"></style></defs><path d="M482.456933 728.876446c-33.074645 0-59.898672 26.834158-59.898672 59.892065 0 33.102932 26.824028 59.903322 59.898672 59.903322 33.075668 0 59.889462-26.800389 59.889462-59.903322C542.347419 755.711628 515.533625 728.876446 482.456933 728.876446z" p-id="2660" fill="#d81e06"></path><path d="M768.717368 728.876446c-33.081808 0-59.905836 26.834158-59.905836 59.892065 0 33.102932 26.824028 59.903322 59.905836 59.903322 33.069528 0 59.888439-26.800389 59.888439-59.903322C828.605807 755.711628 801.786896 728.876446 768.717368 728.876446z" p-id="2661" fill="#d81e06"></path><path d="M839.043968 618.708324 422.079334 618.708324l-143.534952-424.468434c-4.165031-12.376888-15.77288-18.62315-28.844119-18.62315L122.863299 175.61674c-16.80851 0-30.43645 11.838629-30.43645 28.652574 0 16.801664 13.627941 28.652574 30.43645 28.652574l104.965946 0 143.530858 424.450015c4.165031 12.376888 15.77288 18.641569 28.844119 18.641569l438.839746 0c16.80851 0 30.43645-11.833513 30.43645-28.65769C869.480418 630.54286 855.851454 618.708324 839.043968 618.708324z" p-id="2662" fill="#d81e06"></path><path d="M904.318294 288.428062l-516.195732-44.978401c-16.688778-1.456165-25.959298 10.340509-20.618439 26.187429l90.205158 269.994224c5.346999 15.868409 23.418322 30.982642 40.157244 30.982642l376.812507 0c16.745062 0 31.90291-15.763009 33.684561-32.405037l23.035589-215.802998C933.184926 305.774125 921.007072 289.884226 904.318294 288.428062z" p-id="2663" fill="#d81e06"></path></svg>