<?xml version="1.0" standalone="no"?><!DOCTYPE svg PUBLIC "-//W3C//DTD SVG 1.1//EN" "http://www.w3.org/Graphics/SVG/1.1/DTD/svg11.dtd"><svg t="1493794304224" class="icon" style="" viewBox="0 0 1024 1024" version="1.1" xmlns="http://www.w3.org/2000/svg" p-id="5437" xmlns:xlink="http://www.w3.org/1999/xlink" width="200" height="200"><defs><style type="text/css"></style></defs><path d="M934.881286 160.164816 91.695399 160.164816c-14.437827 0-26.142403 11.704576-26.142403 26.142403l0 436.517865c0 14.437827 11.704576 26.142403 26.142403 26.142403l193.912431 0 0.008186 210.577996 185.186699-210.577996 464.079594 0c14.437827 0 26.142403-11.704576 26.142403-26.142403L961.024713 186.30722C961.02369 171.869393 949.320137 160.164816 934.881286 160.164816zM447.689299 509.85515l-29.78435 0L417.904948 405.906683 301.147758 405.906683 301.147758 509.85515l-29.78435 0L271.363408 279.172257l29.78435 0 0 100.225679 116.756167 0 0-100.225679 29.78435 0L447.688275 509.85515zM633.844046 489.750253c-14.993482 15.986089-35.098379 23.977088-60.314691 23.977088-24.623817 0-44.281529-7.743358-58.97416-23.232121-14.693654-15.488763-22.039969-35.890418-22.039969-61.208037 0-27.202549 7.596002-48.672536 22.785959-64.408939 15.189957-15.734356 35.790134-23.604604 61.803601-23.604604 24.721031 0 44.104497 7.571443 58.154491 22.710234 14.046924 15.141862 21.071921 36.065404 21.071921 62.771649C656.331199 452.768991 648.834458 473.767234 633.844046 489.750253zM776.513396 369.271298l-40.953737 0 0 89.949638c0 10.822486 1.835811 18.566868 5.510504 23.232121 3.671623 4.668323 9.777691 6.999414 18.317181 6.999414 6.55223 0 12.260232-1.835811 17.126053-5.510504l0 24.27487c-6.355755 3.474125-14.944364 5.212722-25.764803 5.212722-29.486568 0-44.230364-16.32992-44.230364-48.995901l0-95.16236-28.29544 0 0-24.125467 28.29544 0L706.518229 305.531602l29.040407-9.233292 0 48.846498 40.953737 0L776.512373 369.271298z" p-id="5438" fill="#d81e06"></path><path d="M575.316048 365.399107c-16.381086 0-29.313629 5.609765-38.793538 16.82827-9.481955 11.220552-14.22191 26.608008-14.22191 46.166459 0 18.964934 4.789073 33.905204 14.370289 44.825928 9.581216 10.92277 22.462594 16.381086 38.646182 16.381086 16.680914 0 29.388331-5.335519 38.126342-16.009625 8.733918-10.671037 13.105482-25.987884 13.105482-45.942355 0-20.053732-4.370541-35.444257-13.105482-46.166459C604.704378 370.761232 591.996962 365.399107 575.316048 365.399107z" p-id="5439" fill="#d81e06"></path></svg>