<?xml version="1.0" standalone="no"?><!DOCTYPE svg PUBLIC "-//W3C//DTD SVG 1.1//EN" "http://www.w3.org/Graphics/SVG/1.1/DTD/svg11.dtd"><svg t="1494152129551" class="icon" style="" viewBox="0 0 1024 1024" version="1.1" xmlns="http://www.w3.org/2000/svg" p-id="659" xmlns:xlink="http://www.w3.org/1999/xlink" width="200" height="200"><defs><style type="text/css"></style></defs><path d="M220.141706 734.39981c7.784297 5.230075 41.597339 62.274379 249.097518 62.274379 222.582254 0 397.242428-106.425941 394.444946-290.573227 0-39.894524-0.486519-41.35408-0.486519-41.35408l-124.06224-0.12163c0 0 54.611712-210.41929 103.750089-290.573227 10.33852-16.784891 13.500891-19.460744 21.650077-22.501485 10.581779-3.648889 23.961041 3.648889 40.624302 22.501485l0 0c21.163559 24.08267 53.395415 3.162371 41.47571-20.79867-12.041335-24.08267-78.816011-60.693194-114.575128-32.961634-50.354674 51.084452-95.965792 206.527141-134.52239 344.333531l-50.233044 0L496.362635 105.696163c0 0-27.4883-76.991567-77.964604-61.058083-54.246823 17.14978-38.556598 64.585343-38.556598 64.585343s-39.043117-31.13719-78.694382-7.905927c-39.651265 23.231263-24.690818 67.747714-24.690818 67.747714s-42.448747-25.055707-77.113196 6.324742c-34.664449 31.380449-7.662668 77.234826-7.662668 77.234826s-52.665637-7.541038-64.706972 45.732747c-10.946668 56.192897 24.690818 67.747714 24.690818 67.747714s-52.787267-8.027557-64.706972 42.570377c-5.838223 24.569189 1.581185 43.178525 10.581779 55.949638L74.794277 464.625252l0 41.47571c0 12.284594 6.081482 80.518826 20.79867 103.750089C117.364654 644.515501 167.232809 699.248842 220.141706 734.39981z" p-id="660"></path><path d="M676.739401 900.424278m-83.073049 0a68.3 68.3 0 1 0 166.146098 0 68.3 68.3 0 1 0-166.146098 0Z" p-id="661"></path><path d="M261.617415 817.472859c-45.854377 0-83.073049 37.218672-83.073049 83.073049 0 45.854377 37.218672 83.073049 83.073049 83.073049 45.854377 0 83.073049-37.218672 83.073049-83.073049C344.690464 854.569901 307.471792 817.472859 261.617415 817.472859z" p-id="662"></path></svg>