<?xml version="1.0" standalone="no"?><!DOCTYPE svg PUBLIC "-//W3C//DTD SVG 1.1//EN" "http://www.w3.org/Graphics/SVG/1.1/DTD/svg11.dtd"><svg t="1494152217848" class="icon" style="" viewBox="0 0 1024 1024" version="1.1" xmlns="http://www.w3.org/2000/svg" p-id="569" xmlns:xlink="http://www.w3.org/1999/xlink" width="200" height="200"><defs><style type="text/css"></style></defs><path d="M831.486504 190.329991C770.329372 142.385186 698.301542 109.46276 622.166576 92.983729 613.153446 40.29478 567.25033 0 511.99702 0 456.761528 0 410.858413 40.29478 401.827464 92.983729 325.682104 109.4687 253.672093 142.385186 192.513475 190.329991 107.243619 257.200885 56.340964 344.175365 56.340964 422.971209 56.340964 474.819724 76.218851 513.136664 110.283138 541.500555L163.540789 970.201856C165.420629 985.329664 178.261741 996.64582 193.487546 996.64582L830.512435 996.64582C845.73824 996.64582 858.579354 985.329664 860.45919 970.201856L913.710905 541.500555C947.782616 513.136664 967.659014 474.819724 967.659014 422.971209 967.659014 344.175365 916.750421 257.200885 831.486504 190.329991L831.486504 190.329991ZM469.760036 82.555522C479.080533 69.173919 494.503826 60.392428 511.99702 60.392428 529.490214 60.392428 544.919446 69.173919 554.239944 82.555522 560.051705 90.866311 563.51441 100.964878 563.51441 111.909817 563.51441 123.64916 559.402819 134.398098 552.738745 143.086042 543.324701 155.348057 528.649781 163.422753 511.99702 163.422753 495.350199 163.422753 480.675279 155.348057 471.262719 143.086042 464.591221 134.404037 460.467751 123.64916 460.467751 111.909817 460.473691 100.964878 463.948275 90.866311 469.760036 82.555522L469.760036 82.555522ZM220.163145 936.299423 176.209657 582.450159C180.339067 583.859297 184.671903 584.050847 188.980981 583.580143 191.493373 583.342564 194.004279 583.110923 196.399366 582.264553L222.402322 572.688657 254.19922 936.299423 220.163145 936.299423 220.163145 936.299423ZM303.658587 936.299423 271.762203 571.557194 307.35887 582.217034C313.426029 584.050847 319.880736 583.905326 325.861773 581.887397L354.86861 571.886831 370.81309 936.299423 303.658587 936.299423 303.658587 936.299423ZM476.928964 936.299423 420.132879 936.299423 404.118611 570.240114 422.87691 582.217034C429.065827 583.957299 435.642294 583.673691 441.6753 581.416693L476.928964 577.195224 476.928964 936.299423 476.928964 936.299423ZM603.8671 936.299423 530.74938 936.299423 530.74938 570.148056 564.043022 581.655757C570.034452 583.71972 576.524797 583.859297 582.591955 582.031428L619.859096 570.854849 603.8671 936.299423 603.8671 936.299423ZM653.18689 936.299423 669.236793 569.491746 716.229803 582.264553C722.522658 583.957299 729.15258 583.580143 735.213801 581.231087L751.976442 574.607104 720.342875 936.299423 653.18689 936.299423 653.18689 936.299423ZM803.836837 936.299423 769.800761 936.299423 801.53381 573.483059 820.501476 581.139024C826.829966 583.673691 833.759835 583.673691 840.285815 581.74782 840.994094 581.562209 841.75286 581.655757 842.461144 581.370664L848.197177 579.213153 803.836837 936.299423 803.836837 936.299423ZM830.448583 520.044256 789.864255 503.700347C782.701266 500.788527 774.708241 500.788527 767.52149 503.606801L722.406838 521.355391 653.198768 502.57482C647.752283 501.118167 641.998433 501.165683 636.597976 502.806459L574.564775 521.401423 521.863948 503.183614C515.204329 500.880589 507.937399 500.980075 501.341629 503.467224L453.675979 521.448938 386.839237 502.714397C380.929475 501.072137 374.664829 501.257744 368.88722 503.229645L315.432081 521.640486 254.111613 503.183614C247.854392 501.303775 241.154681 501.489384 235.011795 503.746378L192.160077 519.477038C140.786719 497.45352 116.703694 465.754623 116.703694 422.971209 116.703694 317.407704 243.172613 192.679047 408.271778 153.701342 424.871084 194.74301 465.084196 223.813696 511.99702 223.813696 558.921723 223.813696 599.122957 194.74301 615.723747 153.653827 780.809546 192.679047 907.290345 317.407704 907.290345 422.971209 907.290345 466.131779 882.744041 498.014799 830.448583 520.044256L830.448583 520.044256ZM753.467244 271.387284 697.832323 243.587643C684.097326 236.678566 667.402985 242.270568 660.52509 256.029326 653.657594 269.740569 659.219894 286.457179 672.954897 293.3128L728.595758 321.159958C732.587076 323.137798 736.820423 324.077718 741.015165 324.077718 751.205797 324.077718 761.031145 318.439685 765.914869 308.718275 772.78237 294.959516 767.208186 278.238451 753.467244 271.387284L753.467244 271.387284ZM494.02273 297.308572 445.677012 358.403341C436.147148 370.467869 438.188838 387.93879 450.235547 397.474593 455.340513 401.510456 461.435884 403.482357 467.46889 403.482357 475.687617 403.482357 483.808344 399.86968 489.306799 392.920512L537.652517 331.821288C547.186835 319.756761 545.140691 302.285839 533.098436 292.750037 521.039848 283.220173 503.558533 285.285621 494.02273 297.308572L494.02273 297.308572ZM304.493081 242.364114 251.612585 275.094992C238.556167 283.174142 234.51882 300.313938 242.609849 313.370357 247.876665 321.91427 256.977402 326.566351 266.287506 326.566351 271.275167 326.566351 276.350436 325.203246 280.91491 322.383487L333.795406 289.606577C346.847369 281.527427 350.877293 264.387631 342.786264 251.337153 334.713053 238.280735 317.543559 234.237448 304.493081 242.364114L304.493081 242.364114Z" p-id="570"></path></svg>