<?xml version="1.0" standalone="no"?><!DOCTYPE svg PUBLIC "-//W3C//DTD SVG 1.1//EN" "http://www.w3.org/Graphics/SVG/1.1/DTD/svg11.dtd"><svg t="1494152481245" class="icon" style="" viewBox="0 0 1024 1024" version="1.1" xmlns="http://www.w3.org/2000/svg" p-id="1028" xmlns:xlink="http://www.w3.org/1999/xlink" width="200" height="200"><defs><style type="text/css"></style></defs><path d="M649.4 568h-56c-15.5 0-28 12.5-28 28s12.5 28 28 28h56c15.5 0 28-12.5 28-28s-12.5-28-28-28zM593.4 400h56c15.5 0 28-12.5 28-28s-12.5-28-28-28h-56c-15.5 0-28 12.5-28 28s12.5 28 28 28z" fill="" p-id="1029"></path><path d="M876 64H540c-21.5 0-41.1 8.4-56 21.8C469.1 72.4 449.7 64 428 64H148c-46.3 0-84 37.7-84 84v728c0 46.3 37.7 84 84 84h280c21.7 0 41.1-8.4 56-21.8 14.9 13.4 34.5 21.8 56 21.8h336c46.4 0 84-37.7 84-84V148c0-46.3-37.6-84-84-84z m-336 56h336c15.5 0 28 12.6 28 28v308H512V148c0-15.4 12.6-28 28-28zM120 291.5h336v56H120v-56zM148 120h280c15.5 0 28 12.6 28 28v87.5H120V148c0-15.4 12.6-28 28-28z m280 784H148c-15.4 0-28-12.6-28-28V403.5h336V876c0 15.5-12.5 28-28 28z m448 0H540c-15.4 0-28-12.6-28-28V512h392v364c0 15.5-12.5 28-28 28z" fill="" p-id="1030"></path></svg>