<?xml version="1.0" standalone="no"?><!DOCTYPE svg PUBLIC "-//W3C//DTD SVG 1.1//EN" "http://www.w3.org/Graphics/SVG/1.1/DTD/svg11.dtd"><svg t="1494152696527" class="icon" style="" viewBox="0 0 1024 1024" version="1.1" xmlns="http://www.w3.org/2000/svg" p-id="1020" xmlns:xlink="http://www.w3.org/1999/xlink" width="200" height="200"><defs><style type="text/css"></style></defs><path d="M828.8 787.1744c0-14.1312-11.52-25.5744-25.6-25.5744H220.7744a25.6 25.6 0 0 0-25.6 25.5744v64.0512a25.5232 25.5232 0 0 1-25.7536 25.5744H76.9536A25.6256 25.6256 0 0 1 51.2 851.2768v-150.528c0-14.1056 11.648-25.5488 25.6-25.5488h870.4c14.1312 0 25.6 11.4176 25.6 25.5232v150.528c0 14.1056-11.2896 25.5488-25.7536 25.5488h-118.2464v-89.6256zM515.6096 398.8992c134.0928 0 219.5968 8.0896 256.512 23.3984 44.0832 17.9968 90.88 60.3136 122.368 99.8912A716.9024 716.9024 0 0 1 972.8 646.4H51.2c4.5056-10.8032 10.8032-21.6064 40.4992-67.5072 15.3088-22.5024 29.696-43.1872 45.0048-62.1056 29.696-38.6816 76.4928-80.9984 115.2-94.464 42.2912-15.3344 129.5872-23.424 263.68-23.424z m341.9904-26.112c0-16.1792-10.8032-30.592-32.4096-43.1872 0-0.896-0.896-2.688-0.896-3.584 2.7136-3.6096 4.5056-7.2192 4.5056-10.8288 0-11.6992-14.3872-22.4768-42.2912-30.592-27.904-8.0896-62.1056-12.5952-101.7088-12.5952-39.6032 0-73.8048 4.5056-101.7088 12.5952-27.904 8.1152-42.2912 18.8928-42.2912 30.592 0 3.6096 1.792 7.2192 4.5056 10.8032-2.7136 6.2976-4.5056 11.6992-4.5056 17.9968 0 5.4016 1.792 10.8032 4.5056 17.1008a105.3952 105.3952 0 0 0-66.6112 0c2.7136-6.2976 4.5056-11.6992 4.5056-17.1008 0-6.2976-1.792-11.6992-4.5056-17.9968 2.7136-3.584 4.5056-7.168 4.5056-10.8032 0-11.6992-14.3872-22.4768-42.2912-30.592-27.904-8.0896-62.1056-12.5952-101.7088-12.5952-39.6032 0-73.8048 4.5056-101.7088 12.5952-27.904 8.1152-42.2912 18.8928-42.2912 30.592 0 3.6096 1.792 7.2192 4.5056 10.8032 0 0.9216-0.896 2.7136-0.896 3.6096-21.6064 12.5952-32.4096 27.008-32.4096 43.1872 0 8.1152 2.688 15.3088 8.0896 22.528-24.2944 15.2832-36.8896 31.488-36.8896 49.4848H105.4208a25.472 25.472 0 0 1-25.4208-25.728V155.008C80 140.5952 91.6992 128 107.008 128h809.984c15.3088 0 27.008 12.5952 27.008 27.008V419.072c0 14.208-11.648 25.728-25.4208 25.728h-32.1792c0-17.9968-12.5952-34.2016-36.8896-49.5104 5.376-7.168 8.0896-14.3872 8.0896-22.5024z" p-id="1021"></path></svg>