<?xml version="1.0" standalone="no"?><!DOCTYPE svg PUBLIC "-//W3C//DTD SVG 1.1//EN" "http://www.w3.org/Graphics/SVG/1.1/DTD/svg11.dtd"><svg t="1494149425593" class="icon" style="" viewBox="0 0 1024 1024" version="1.1" xmlns="http://www.w3.org/2000/svg" p-id="3349" xmlns:xlink="http://www.w3.org/1999/xlink" width="200" height="200"><defs><style type="text/css"></style></defs><path d="M784.8 442.6c4.3 2.9 9.3 4.4 14.5 4.4 7 0 13.6-2.8 18.5-7.8l82.2-84.4c9.3-9.6 9.8-24.5 1.2-34.7l-149.2-176c-4.9-5.8-12.1-9.1-19.7-9.1l-93.8 0c-7.1 0-14.1 3-19 8.3-4.9 5.3-7.3 12.5-6.7 19.6 0.7 8.5 1 15.2 1 21.6 0 26.2-6 40.8-20.1 48.9-13.7 7.9-34.4 9.4-65.6 9.4l-17.8 0c-24.6 0-48.1-0.7-63.9-8.6-10.4-5.2-22.3-15.6-22.3-49.7 0-6.7 0.3-13.6 0.9-21.7 0.6-7.1-1.9-14.3-6.8-19.6-4.9-5.3-11.8-8.3-19-8.3l-95.8 0c-7.3 0-14.3 3.1-19.2 8.5L130.9 313.4c-9.3 10.3-8.8 26 1.1 35.7l84.4 83.1c4.9 4.8 11.3 7.4 18.1 7.4 4.9 0 9.6-1.4 13.7-4l72-45c16.6 127.4 1.5 150.3-1.7 153.7l-122 128.9-5.8 5.7c-17.6 17.2-41.7 40.6-44.6 71.2-0.4 2.3-0.5 4.7-0.3 6.9 1.6 38.9 35.5 70.3 74.8 68.8 3.6 15.3 12.3 29.1 24.4 39.1 12.7 10.4 28.7 16.1 45.1 16.1 12.2 0 24.3-3.2 35-9.2 13 16.5 35 26.8 57.9 26.8 12.1 0 23.6-2.9 33.3-8.4 12.7 16.1 34.6 26 57.6 26 17 0 32.7-5.3 44.4-15 12.8 10.7 29 16.6 45.7 16.6 22.1 0 42.5-10 56.2-27.5 9.6 5.4 21.1 8.2 33.1 8.2 23.1 0 45.3-10.2 58.2-26.8 10.7 6.1 22.7 9.3 35 9.3 32.9 0 61.9-23.2 69.5-55.2 1.2 0.1 2.3 0.1 3.5 0.1 38.8 0 70.8-32.2 71.4-71.8 0-33.9-24-57.7-47.1-80.8l-125.6-128c-4.2-5.1-16.7-30.7-2.2-149.2L784.8 442.6zM685.5 328c-8.2 3.6-13.8 11-15.1 19.8-9.9 66.7-14 116.9-12.6 153.5 1.4 37.2 8.7 63 22.1 78.8l127.9 130.4c15.3 15.3 31.1 31.1 31.4 41.4-0.1 0.8-0.1 1.7-0.1 2.5-0.2 11-9.1 19.9-19.8 19.9-6.3 0-10.8-3-13.5-5.6-4.5-4.3-11.2-6.7-18.2-6.7-3.6 0-7.1 0.7-10.3 1.9-6.9 2.6-12.4 8.1-15 15-2.6 6.9-2.1 14.6 1.3 21.2 1.7 3.1 2.5 6.2 2.5 9.3 0 11.1-8.9 20.2-19.8 20.2-9.7 0-18.1-7.5-19.4-17.5-0.9-6.7-5.5-13.3-12.6-17.9-3.9-2.6-9-4-14.5-4-2.8 0-5.5 0.4-8 1.1-13.5 3.9-21.4 17.6-17.9 31.2 0.6 2.3 0.9 3.9 0.9 5.3 0 11.1-8.9 20.2-19.8 20.2-9.7 0-17.9-7.2-19.4-17-1.9-12.1-14.1-21.6-27.9-21.6-0.8 0-1.6 0-2.4 0.1-7.4 0.7-14.2 4.7-18.5 10.8-4.3 6.1-5.8 13.8-4 21.1 0.4 1.7 0.7 3.3 0.7 4.8 0 11.1-8.9 20.1-19.7 20.1-5.1 0-9.9-2-13.5-5.6-4-4.1-6.2-10-6-16.6 0.6-6.8-2-14-7.1-19.6-4.9-5.2-12.1-8.3-19.4-8.3-8.6 0-15.4 5.9-18.7 9.5-4.6 4.9-7.3 13-6.8 20.6 0 11.1-8.9 20.1-19.8 20.1-10.9 0-19.8-9-19.8-20.1 0-1.4 0.3-3 0.8-4.9 1.6-6.2 0-13.7-4.4-20.6-3.7-5.8-10.9-10.3-18.3-11.7-1.5-0.3-3.1-0.4-4.6-0.4-5.4 0-10.6 1.7-15.1 4.9-5.7 4.1-9.5 10.4-10.5 17.3-1.4 10-9.5 17.2-19.3 17.2-10.9 0-19.8-9-19.8-20.2 0-1.3 0.3-3.1 0.9-5.5 3.6-13.2-5.9-28.3-20.3-32.3-2.3-0.6-4.6-1-7-1-5.1 0-10.1 1.5-14.3 4.4-6.3 4.2-10.4 10.9-11.3 18.4-1.2 10.1-9.6 17.7-19.5 17.7-10.9 0-19.8-9-19.8-20.2 0-3.1 0.8-6.2 2.5-9.5 3.3-6.1 3.6-13.8 0.8-21.3-2.4-6.6-8.3-12.5-15.3-15.4-3.1-1.2-6.4-1.9-9.7-1.9-6.8 0-13.2 2.6-18 7.4-3.3 3.2-7.6 5-12.4 5-10 0-20.8-7.8-21-19.4 0-9.8 21.4-30.5 29.6-38.4l128.8-135.7c28.3-28.8 31.3-99.5 10-236.4-1.4-8.6-6.9-15.9-14.8-19.5-3.4-1.6-7-2.3-10.7-2.3-4.8 0-9.5 1.4-13.7 3.9l-88.4 55.2-52.2-51.5 128.9-143 57.5 0c0.5 45.6 17.6 77.2 50.8 93.8 25.9 13 55.9 14.1 87 14.1l17.8 0c24.5 0 58 0 86.3-13.6 33.5-16.1 50.7-47.8 51.1-94.3l54.9 0 126.3 148.9-50.8 52.1-85.4-57.6c-4.3-2.9-9.3-4.4-14.4-4.4C692.3 325.8 688.8 326.5 685.5 328z" p-id="3350" fill="#777777"></path></svg>