<?xml version="1.0" standalone="no"?><!DOCTYPE svg PUBLIC "-//W3C//DTD SVG 1.1//EN" "http://www.w3.org/Graphics/SVG/1.1/DTD/svg11.dtd"><svg t="1494151298326" class="icon" style="" viewBox="0 0 1024 1024" version="1.1" xmlns="http://www.w3.org/2000/svg" p-id="5293" xmlns:xlink="http://www.w3.org/1999/xlink" width="200" height="200"><defs><style type="text/css"></style></defs><path d="M722.785727 954.35685 297.460786 954.35685c-35.352159 0-35.352159-33.997302-35.352159-50.340525l11.056823-518.655584-75.200726 67.512626c-3.741207 3.777023-15.82236 12.565177-34.493605 1.039679-7.484462-4.635577-14.337543-11.481496-19.331277-16.482393l-84.550675-72.951499c-11.305487-11.247158-35.549657-35.513842-15.809057-55.276954L155.048285 197.930955c7.424086-9.014304 75.998905-88.615247 183.900404-88.615247l65.432245 0 0 29.992081-65.432245 0c-97.658204 0-160.403247 77.251432-161.025417 78.034261-0.350994 0.438998-0.724501 0.857531-1.12052 1.252527L67.357084 328.049454c2.570545 4.40738 9.584286 11.43033 12.499685 14.343683l84.572164 72.974012c3.741207 3.691065 11.028171 10.969842 15.442714 13.473873l99.005898-88.915076c4.437056-4.00522 10.851139-4.965082 16.269545-2.468215 5.432733 2.489704 8.866948 7.973602 8.743128 13.94971l-11.788487 552.931225c0 4.465708 0 17.178241 2.116197 19.703761-0.066515-0.051165 0.937348 0.322341 3.243881 0.322341L722.785727 924.364769c2.12336 0 3.170203-0.329505 3.3984-0.454348 1.961678-2.393513 1.961678-15.106046 1.961678-19.894096l-11.788487-552.608883c-0.124843-5.976108 3.309372-11.460006 8.743128-13.94971 5.418406-2.481518 11.818163-1.523703 16.270569 2.468215l100.111069 89.87289 112.243387-100.923574-110.281709-110.281709c-0.388856-0.38067-0.76134-0.805342-1.105171-1.230014-0.629333-0.782829-63.836911-78.056774-161.039743-78.056774l-62.72253 0L618.576317 109.315708l62.72253 0c107.901499 0 176.475294 79.600943 183.900404 88.615247l111.262036 111.270223c14.982226 14.996552 14.982226 24.537859 0.124843 39.409568l-115.940592 104.254435c-5.528923 5.557576-10.712993 10.741645-19.184945 10.741645-8.470929 0-13.657045-5.184069-19.653619-11.180644l-74.723865-67.073628 11.056823 518.341429C758.136863 920.359548 758.136863 954.35685 722.785727 954.35685z" p-id="5294"></path><path d="M393.061121 124.31226" p-id="5295"></path><path d="M539.625174 369.690854c-4.145413 0-7.497765-3.353374-7.497765-7.497765L532.12741 210.372312c0-4.145413 3.353374-7.497765 7.497765-7.497765 4.143367 0 7.497765 3.353374 7.497765 7.497765l0 151.820778C547.123962 366.337479 543.769564 369.690854 539.625174 369.690854z" p-id="5296"></path><path d="M479.641011 369.690854c-4.145413 0-7.497765-3.353374-7.497765-7.497765L472.143247 210.372312c0-4.145413 3.353374-7.497765 7.497765-7.497765 4.143367 0 7.497765 3.353374 7.497765 7.497765l0 151.820778C487.138776 366.337479 483.784378 369.690854 479.641011 369.690854z" p-id="5297"></path><path d="M518.447852 248.946862c0 5.255701-4.260024 9.525957-9.533121 9.525957-5.257747 0-9.519818-4.269233-9.519818-9.525957 0-5.26491 4.26207-9.534144 9.519818-9.534144C514.187829 239.411695 518.447852 243.680928 518.447852 248.946862z" p-id="5298"></path><path d="M518.447852 278.938943c0 5.255701-4.260024 9.525957-9.533121 9.525957-5.257747 0-9.519818-4.269233-9.519818-9.525957 0-5.26491 4.26207-9.534144 9.519818-9.534144C514.187829 269.403776 518.447852 273.674033 518.447852 278.938943z" p-id="5299"></path><path d="M518.447852 308.931025c0 5.255701-4.260024 9.525957-9.533121 9.525957-5.257747 0-9.519818-4.269233-9.519818-9.525957 0-5.26491 4.26207-9.534144 9.519818-9.534144C514.187829 299.396881 518.447852 303.666114 518.447852 308.931025z" p-id="5300"></path><path d="M518.447852 338.923106c0 5.255701-4.260024 9.525957-9.533121 9.525957-5.257747 0-9.519818-4.269233-9.519818-9.525957 0-5.26491 4.26207-9.534144 9.519818-9.534144C514.187829 329.388962 518.447852 333.658196 518.447852 338.923106z" p-id="5301"></path><path d="M192.891172 420.391583 76.671217 315.110771 86.732363 303.995619 202.952318 409.276431Z" p-id="5302"></path><path d="M828.204685 425.245124 818.115909 414.145321 939.210895 304.001759 949.301717 315.103608Z" p-id="5303"></path><path d="M512.158612 114.823142c-37.07336 0-65.344241-2.562359-65.768913-2.599198l1.38965-14.937201c0.608867 0.058328 62.899562 5.682419 123.257232 0.007163l1.404999 14.922874C551.744189 114.172319 530.830881 114.823142 512.158612 114.823142z" p-id="5304"></path><path d="M510.936785 87.847767c-43.832298 0-75.559906-3.199878-76.028581-3.243881l1.539053-14.922874c0.695848 0.065492 70.653153 7.109931 145.999189 0l1.407046 14.922874C558.114271 87.042425 532.99108 87.847767 510.936785 87.847767z" p-id="5305"></path><path d="M458.522018 229.446739c-1.098008 0-2.203178-0.2415-3.228531-0.733711-1.661849-0.789992-40.865733-20.48045-60.812017-115.618251-0.511653-2.438539 0.220011-4.972245 1.955538-6.758937l33.390481-34.414811c1.917676-1.970888 4.765537-2.753717 7.40976-1.991354 2.651386 0.738827 4.678556 2.883677 5.287423 5.564739 0.160659 0.709151 16.576537 71.054289 70.396303 107.205651 2.085498 1.397836 3.331885 3.749394 3.316535 6.260587-0.01535 2.51017-1.282203 4.846378-3.375887 6.230911l-50.217728 33.023114C461.399555 229.028207 459.96488 229.446739 458.522018 229.446739zM409.989675 113.90012c14.945387 67.825758 39.643905 92.224448 48.532343 99.070366l37.052894-24.360827c-38.617529-30.350239-56.954153-75.061556-64.027246-96.925516L409.989675 113.90012z" p-id="5306"></path><path d="M559.308469 229.446739c-1.442862 0-2.877537-0.418532-4.123924-1.231037l-50.201355-33.030277c-2.094708-1.376347-3.360538-3.712555-3.375887-6.223748-0.01535-2.512217 1.230014-4.862751 3.317559-6.260587 53.819766-36.151361 70.235644-106.496499 70.396303-107.205651 0.607844-2.681062 2.636037-4.825912 5.287423-5.564739 2.635013-0.76134 5.499248 0.021489 7.40976 1.991354l33.375132 34.414811c1.735527 1.785669 2.467191 4.320399 1.955538 6.758937-19.930935 95.138824-59.151191 114.828258-60.812017 115.618251C561.510624 229.205239 560.405453 229.446739 559.308469 229.446739zM522.270924 188.609659l37.037545 24.360827c8.888438-6.845918 33.594119-31.244608 48.532343-99.070366l-21.541619-22.217001C579.224054 113.548102 560.888454 158.25942 522.270924 188.609659z" p-id="5307"></path></svg>