<?xml version="1.0" standalone="no"?><!DOCTYPE svg PUBLIC "-//W3C//DTD SVG 1.1//EN" "http://www.w3.org/Graphics/SVG/1.1/DTD/svg11.dtd"><svg t="1494152647326" class="icon" style="" viewBox="0 0 1024 1024" version="1.1" xmlns="http://www.w3.org/2000/svg" p-id="1018" xmlns:xlink="http://www.w3.org/1999/xlink" width="200" height="200"><defs><style type="text/css"></style></defs><path d="M757.70554 697.15907 65.289494 697.15907l0-113.945145L65.289494 470.270597l66.948785-90.327238-33.503045 0c-18.479887 0-33.44574-15.19405-33.44574-33.876552 0-18.683525 14.965853-33.876552 33.44574-33.876552l67.00609 0c5.167696 0 9.920954 1.38351 14.234189 3.444449l86.308715-116.330472 491.421312 0 86.317924 116.330472c4.295839-2.056845 9.06547-3.444449 14.217816-3.444449l67.023486 0c18.4717 0 33.444716 15.193027 33.444716 33.876552 0 18.683525-14.973016 33.876552-33.444716 33.876552l-33.512255 0 66.956971 90.327238 0 112.944352 0 113.945145L757.70554 697.160093zM154.598542 470.270597c0 25.00244 20.016893 45.186132 44.679595 45.186132l67.00609 0c24.661679 0 44.686758-20.183691 44.686758-45.186132 0-24.899086-20.025079-45.140083-44.686758-45.140083l-67.00609 0C174.615435 425.130514 154.598542 445.37151 154.598542 470.270597L154.598542 470.270597zM725.573725 244.431012 294.236859 244.431012l-100.542904 135.512347L826.108442 379.943358 725.573725 244.431012 725.573725 244.431012zM824.712653 425.130514l-67.00609 0c-24.661679 0-44.678572 20.240997-44.678572 45.140083 0 25.00244 20.017916 45.186132 44.678572 45.186132l67.00609 0c24.669866 0 44.679595-20.183691 44.679595-45.186132C869.407598 445.37151 849.382519 425.130514 824.712653 425.130514L824.712653 425.130514zM65.289494 722.034621l217.431078 0 0 102.662171L65.289494 824.696792 65.289494 722.034621zM741.278405 722.034621 958.70846 722.034621l0 102.662171L741.278405 824.696792 741.278405 722.034621z" p-id="1019"></path></svg>