<?xml version="1.0" standalone="no"?><!DOCTYPE svg PUBLIC "-//W3C//DTD SVG 1.1//EN" "http://www.w3.org/Graphics/SVG/1.1/DTD/svg11.dtd"><svg t="1494151992908" class="icon" style="" viewBox="0 0 1024 1024" version="1.1" xmlns="http://www.w3.org/2000/svg" p-id="1016" xmlns:xlink="http://www.w3.org/1999/xlink" width="200" height="200"><defs><style type="text/css"></style></defs><path d="M127.715777 63.815421 85.129866 63.815421" p-id="1017"></path><path d="M244.604974 957.234387" p-id="1018"></path><path d="M703.374632 63.815421 317.716108 63.815421c-45.415352 0-82.641185 37.673018-82.641185 83.683934l0 725.902718c0 46.159296 37.225833 83.832314 82.641185 83.832314l385.658524 0c45.416376 0 82.642209-37.673018 82.642209-83.832314l0-725.902718C786.016841 101.488439 748.791008 63.815421 703.374632 63.815421zM400.357294 105.657388l220.376153 0 0 27.993564L400.357294 133.650953 400.357294 105.657388zM510.545882 901.395638c-30.376844 0-55.094806-25.015743-55.094806-55.838749 0-30.823006 24.717961-55.838749 55.094806-55.838749 30.375821 0 55.093782 25.015743 55.093782 55.838749C565.639664 876.379894 540.921703 901.395638 510.545882 901.395638zM730.923058 733.87939 290.168706 733.87939 290.168706 175.49292l440.753329 0L730.922035 733.87939z" p-id="1019"></path></svg>