<?xml version="1.0" standalone="no"?><!DOCTYPE svg PUBLIC "-//W3C//DTD SVG 1.1//EN" "http://www.w3.org/Graphics/SVG/1.1/DTD/svg11.dtd"><svg t="1494152298518" class="icon" style="" viewBox="0 0 1024 1024" version="1.1" xmlns="http://www.w3.org/2000/svg" p-id="619" xmlns:xlink="http://www.w3.org/1999/xlink" width="200" height="200"><defs><style type="text/css"></style></defs><path d="M807.765333 409.884444c-36.579556 0-71.736889 9.216-103.139556 26.737778-28.103111-47.331556-31.516444-61.326222-37.888-97.792-10.24-57.230222-7.623111-111.331556 3.072-158.72 1.592889-7.509333 3.356444-13.937778 4.778667-19.114667l2.332444-0.512-1.024-3.982222c1.024-3.072 1.820444-5.575111 2.503111-7.281778l10.752-27.704889 115.768889 0c17.408 0 31.459556-13.994667 31.459556-31.232 0-17.351111-14.051556-31.232-31.459556-31.232L430.535111 59.050667c-17.408 0-31.459556 13.937778-31.459556 31.232 0 17.408 14.108444 31.232 31.459556 31.232l147.683556 0c-32.483556 13.539556-69.461333 34.759111-106.325333 65.991111-19.911111 16.839111-38.286222 35.726222-55.011556 56.775111-37.944889 47.786667-64.056889 91.306667-80.497778 129.706667-5.233778 12.344889-9.045333 22.926222-11.662222 31.857778C311.694222 403.911111 298.496 402.659556 285.013333 402.659556c-155.306667 0-281.201778 125.895111-281.201778 281.201778s125.838222 281.144889 281.201778 281.144889c155.249778 0 281.144889-125.895111 281.144889-281.144889 0-118.044444-72.874667-218.965333-176.014222-260.664889 1.877333-6.428444 4.835556-14.848 9.500444-25.827556 14.222222-33.336889 37.489778-72.021333 72.021333-115.484444C485.717333 264.192 501.191111 248.376889 517.802667 234.268444c27.818667-23.665778 57.742222-41.358222 87.608889-53.930667-9.784889 52.110222-11.264 110.08-0.455111 171.121778 7.68 43.463111 12.970667 67.925333 66.616889 139.207111 3.072 4.323556 7.224889 7.793778 12.117333 10.126222 9.955556 5.916444 22.755556 5.575111 32.597333-1.649778 26.624-19.854222 58.254222-30.321778 91.477333-30.321778 84.593778 0 153.486222 68.892444 153.486222 153.486222 0 84.593778-68.892444 153.429333-153.486222 153.429333-84.650667 0-153.429333-68.835556-153.429333-153.429333 0-26.168889 6.656-51.996444 19.456-74.752 7.964444-14.165333 2.787556-32.142222-11.377778-40.049778-14.222222-7.964444-32.142222-2.844444-40.163556 11.320889-17.521778 31.459556-26.851556 67.299556-26.851556 103.537778 0 117.077333 95.288889 212.309333 212.366222 212.309333s212.423111-95.288889 212.423111-212.309333C1020.245333 505.230222 924.899556 409.884444 807.765333 409.884444L807.765333 409.884444zM495.843556 683.861333c0 116.451556-94.435556 210.830222-210.830222 210.830222-116.451556 0-210.887111-94.378667-210.887111-210.830222 0-116.508444 94.435556-210.830222 210.887111-210.830222C401.408 472.974222 495.843556 567.352889 495.843556 683.861333L495.843556 683.861333zM495.843556 683.861333" p-id="620"></path><path d="M290.417778 546.645333c-1.251556 0-2.56 0.170667-3.811556 0.341333L286.606222 546.929778c-0.056889 0-0.056889 0.056889-0.113778 0.056889C284.330667 547.271111 282.225778 547.84 280.177778 548.579556c-27.591111 7.736889-49.038222 22.869333-64.455111 43.235556-13.937778 18.318222-20.536889 36.636444-22.641778 49.948444l0.113778 0.056889c0 0.056889 0 0.113778 0 0.113778-1.479111 14.677333 8.419556 27.704889 22.016 29.013333 12.686222 1.251556 24.177778-8.078222 26.851556-21.219556l0 0c0.967111-6.030222 4.949333-16.952889 13.141333-27.818667 9.784889-12.970667 23.438222-22.072889 42.439111-26.453333L297.642667 595.456c11.264-2.958222 19.456-12.572444 19.456-23.836444C317.098667 557.795556 305.152 546.645333 290.417778 546.645333L290.417778 546.645333zM290.417778 546.645333" p-id="621"></path></svg>