<?xml version="1.0" standalone="no"?><!DOCTYPE svg PUBLIC "-//W3C//DTD SVG 1.1//EN" "http://www.w3.org/Graphics/SVG/1.1/DTD/svg11.dtd"><svg t="1494152890804" class="icon" style="" viewBox="0 0 1024 1024" version="1.1" xmlns="http://www.w3.org/2000/svg" p-id="1033" xmlns:xlink="http://www.w3.org/1999/xlink" width="200" height="200"><defs><style type="text/css"></style></defs><path d="M865.37498 0 158.592548 0C142.616394 0 129.627652 12.956271 129.627652 29.02984l0 965.972792c0 15.976153 12.988743 28.997368 28.964896 28.997368L865.37498 1024c16.008625 0 28.997368-12.923799 28.997368-28.997368L894.372348 29.02984C894.339876 12.956271 881.383606 0 865.37498 0zM654.924877 627.973236l-67.931124 0 0-143.103472 0-29.809164-69.587189 0 0 172.912637-28.770065 0 0-172.912637-69.489773 0 0 172.912637L387.38925 627.973236l0-172.912637L317.802061 455.060599l0 172.912637L292.084351 627.973236l0-172.912637L222.529634 455.060599l0 172.912637L187.524972 627.973236l0-257.371936 648.885112 0 0 257.371936-130.764167 0 21.463897-10.163691-77.283019-162.748946-62.833043 29.809164L654.924877 627.973236zM781.759949 299.845124l54.650135-132.290344 0 132.290344L781.759949 299.845124zM836.410084 57.962264l0 94.038497-58.839004-24.191533-68.742921 166.515681 13.63818 5.552687-135.472586 0L586.993753 119.723736l-69.587189 0 0 180.153861-31.789948 0L485.616616 119.723736l-69.489773 0 0 180.153861-25.71771 0L390.409133 119.723736 320.821944 119.723736l0 180.153861L296.727826 299.877596 296.727826 119.723736 227.140637 119.723736l0 180.153861-39.615665 0 0-241.915332C187.524972 57.962264 836.410084 57.962264 836.410084 57.962264zM187.524972 698.729412l648.885112 0 0 114.430823-55.851593-25.068273-73.776058 164.372538 30.361186 13.573236-150.117393 0 0-171.613762-69.587189 0 0 171.613762-28.770065 0 0-171.613762-69.522245 0 0 171.613762L387.38925 966.037736l0-171.613762L317.802061 794.423973l0 171.613762L292.084351 966.037736l0-171.613762L222.529634 794.423973l0 171.613762L187.524972 966.037736 187.524972 698.729412zM776.921643 966.037736l59.488441-132.615063 0 132.615063L776.921643 966.037736z" p-id="1034"></path></svg>