<?xml version="1.0" standalone="no"?><!DOCTYPE svg PUBLIC "-//W3C//DTD SVG 1.1//EN" "http://www.w3.org/Graphics/SVG/1.1/DTD/svg11.dtd"><svg t="1494153032656" class="icon" style="" viewBox="0 0 1031 1024" version="1.1" xmlns="http://www.w3.org/2000/svg" p-id="1035" xmlns:xlink="http://www.w3.org/1999/xlink" width="201.3671875" height="200"><defs><style type="text/css"></style></defs><path d="M815.91849 472.04608 709.571171 472.04608c-59.208909 0-103.897498-15.485645-132.79273-46.0416-41.952154-44.335718-38.909747-108.202394-38.823731-110.870118L537.95471 102.492302c0-18.546381-15.048294-33.595187-33.595494-33.595187L56.395692 68.897115c-18.5472 0-33.597542 15.048704-33.597542 33.595187l0 671.916153c0 1.924813 0.262963 3.761664 0.569958 5.598515-0.306995 1.837875-0.569958 3.67575-0.569958 5.599539l0 89.590458c0 12.159898 6.519706 22.70208 16.18729 28.606566 5.905715 9.667174 16.447283 16.186675 28.610765 16.186675l929.519384 0c18.549248 0 33.597542-15.04768 33.597542-33.596211L1030.71313 774.408455l0-79.529311C1030.713139 529.832141 891.664691 477.011149 815.91849 472.04608zM89.99424 136.089498l380.787838 0 0.045056 176.836506c-0.241459 3.762688-5.315277 92.564173 56.47657 158.552064 42.106675 44.970189 103.417549 67.76023 182.267494 67.76023l104.116429-0.065536c6.123725 0.393933 149.831475 11.591987 149.831475 155.70729l0 45.933145L89.994258 740.813197 89.994258 136.089491zM963.520102 852.79785 89.994258 852.79785l0-44.794206 873.524845 0L963.519102 852.797803zM380.754022 175.261696c-16.952832 0-30.690202 13.735834-30.690202 30.685901 0 16.973619 13.737472 30.686925 30.690202 30.686925 16.971162 0 30.688154-13.713306 30.688154-30.686925C411.442278 188.99753 397.72631 175.261696 380.754022 175.261696zM380.754022 276.530074c-16.952832 0-30.690202 13.71433-30.690202 30.686925 0 16.951091 13.737472 30.663373 30.690202 30.663373 16.971162 0 30.688154-13.712282 30.688154-30.663373C411.442278 290.244403 397.72631 276.530074 380.754022 276.530074zM380.754022 377.776026c-16.952832 0-30.690202 13.736858-30.690202 30.709453 0 16.928563 13.737472 30.665421 30.690202 30.665421 16.971162 0 30.688154-13.736858 30.688154-30.665421C411.442278 391.512883 397.72631 377.776026 380.754022 377.776026z" p-id="1036"></path></svg>