<?xml version="1.0" standalone="no"?><!DOCTYPE svg PUBLIC "-//W3C//DTD SVG 1.1//EN" "http://www.w3.org/Graphics/SVG/1.1/DTD/svg11.dtd"><svg t="1494151853302" class="icon" style="" viewBox="0 0 1024 1024" version="1.1" xmlns="http://www.w3.org/2000/svg" p-id="539" xmlns:xlink="http://www.w3.org/1999/xlink" width="200" height="200"><defs><style type="text/css"></style></defs><path d="M1012.280889 332.288c-62.350222-88.689778-124.700444-177.436444-187.050667-266.126222-5.632-8.760889-15.701333-15.018667-26.112-15.018667L495.729778 51.143111 476.785778 51.143111 201.045333 51.143111c-9.329778 0-16.327111 3.527111-21.219556 8.760889C179.655111 60.074667 179.598222 60.245333 179.370667 60.416 179.313778 60.472889 179.2 60.529778 179.2 60.586667 177.720889 62.179556 176.412444 63.943111 175.160889 65.991111 120.433778 154.737778 65.763556 243.541333 11.150222 332.288c-6.997333 11.491556-4.608 25.031111 3.185778 34.304C14.904889 367.331556 15.36 368.014222 15.872 368.64c154.737778 197.859556 309.361778 395.832889 464.156444 593.692444 6.712889 8.704 15.018667 11.434667 22.755556 10.24 6.769778 0 13.710222-2.958222 19.569778-10.24 161.848889-197.859556 323.584-395.832889 485.319111-593.692444 0.796444-1.024 1.592889-2.048 2.218667-3.185778C1017.457778 356.181333 1020.017778 343.04 1012.280889 332.288L1012.280889 332.288 1012.280889 332.288zM928.824889 317.496889l-184.376889 0c21.048889-57.514667 42.040889-115.029333 63.203556-172.430222C848.042667 202.467556 888.433778 259.982222 928.824889 317.496889L928.824889 317.496889 928.824889 317.496889zM501.248 125.155556c43.861333 64.056889 87.665778 128.170667 131.584 192.341333l-267.377778 0C410.680889 253.383111 455.964444 189.269333 501.248 125.155556L501.248 125.155556 501.248 125.155556zM658.887111 377.400889c-52.394667 142.620444-104.675556 285.240889-157.013333 427.918222C451.128889 662.243556 400.099556 519.566222 347.079111 377.400889L658.887111 377.400889 658.887111 377.400889 658.887111 377.400889zM689.322667 294.058667c-41.813333-60.928-83.569778-121.969778-125.383111-182.954667l192.512 0C734.037333 172.088889 711.68 233.130667 689.322667 294.058667L689.322667 294.058667 689.322667 294.058667zM313.457778 287.573333c-22.357333-58.936889-45.169778-117.76-68.437333-176.526222l193.024 0C396.458667 169.927111 354.872889 228.750222 313.457778 287.573333L313.457778 287.573333 313.457778 287.573333zM195.299556 147.512889c22.414222 56.547556 44.145778 113.208889 65.592889 169.984L90.624 317.496889C125.496889 260.778667 160.369778 204.174222 195.299556 147.512889L195.299556 147.512889 195.299556 147.512889zM283.363556 377.400889c54.727111 146.545778 107.52 293.774222 159.971556 441.457778-115.029333-147.171556-230.115556-294.286222-345.144889-441.457778L283.363556 377.400889 283.363556 377.400889 283.363556 377.400889zM722.432 377.400889l201.045333 0c-121.571556 148.707556-243.029333 297.301333-364.600889 446.008889C613.376 674.702222 667.989333 526.108444 722.432 377.400889L722.432 377.400889 722.432 377.400889zM722.432 377.400889" p-id="540"></path></svg>